#!OML:ASF G:\JayActor3\Patient Classification 1\Patient 1\Session 6\male.ASF
:FULLY-SPECIFIED
:DEGREES
3921
root -0.518778 15.3891 -3.70674 940.798 -72.9205 -928.735
lowerback 32.0568 -2.13257 3.13208
upperback 15.4465 -3.9619 2.7109
thorax 0.243285 -2.77822 2.41287
lowerneck 5.42038 -7.91697 -1.3318
upperneck -29.2797 -8.85277 15.3716
head -9.23108 -6.48298 6.53098
rclavicle 1.11319e-014 3.89618e-014
rhumerus -18.7496 1.33616 -82.6233
rradius 64.746
rwrist -0.184518
rhand -25.8872 -5.46191
rfingers 7.12502
rthumb 0.654692 -35.4407
lclavicle 1.11319e-014 3.89618e-014
lhumerus -11.9232 -11.8824 76.658
lradius 71.0788
lwrist 5.6489
lhand -13.9816 9.13672
lfingers 7.12502
lthumb 12.1468 38.7641
rfemur -53.5393 -5.96689 18.3401
rtibia 65.0842
rfoot -25.2071 -9.91879
rtoes 2.75925
lfemur -43.942 16.9059 -27.515
ltibia 50.6632
lfoot -17.6298 10.6745
ltoes -3.1281
3922
root -0.52388 15.3907 -3.71593 940.935 -72.8888 -928.844
lowerback 32.0524 -2.1264 3.16794
upperback 15.4284 -3.93965 2.71959
thorax 0.222474 -2.76388 2.39607
lowerneck 5.33735 -7.73575 -1.24495
upperneck -29.3139 -8.65968 15.0648
head -9.27134 -6.36502 6.39753
rclavicle 6.36111e-015 -2.78299e-014
rhumerus -18.7991 1.30289 -82.5806
rradius 64.8064
rwrist -0.20074
rhand -25.9007 -5.4313
rfingers 7.12502
rthumb 0.641611 -35.4101
lclavicle 6.36111e-015 -2.78299e-014
lhumerus -11.986 -11.9044 76.6951
lradius 71.0271
lwrist 5.67962
lhand -14.0312 9.10729
lfingers 7.12502
lthumb 12.099 38.7375
rfemur -53.5405 -5.95822 18.321
rtibia 65.0809
rfoot -25.235 -9.88184
rtoes 2.85515
lfemur -43.9423 16.9108 -27.5384
ltibia 50.6527
lfoot -17.612 10.6767
ltoes -3.12747
3923
root -0.529191 15.3925 -3.725 941.08 -72.8617 -928.962
lowerback 32.0498 -2.12179 3.20565
upperback 15.4119 -3.91909 2.72642
thorax 0.202581 -2.75025 2.37669
lowerneck 5.26523 -7.56399 -1.17295
upperneck -29.3613 -8.47455 14.7894
head -9.31386 -6.25418 6.27945
rclavicle -2.70347e-014 3.49861e-014
rhumerus -18.848 1.27042 -82.5432
rradius 64.865
rwrist -0.215193
rhand -25.9164 -5.41199
rfingers 7.12502
rthumb 0.626515 -35.3908
lclavicle -2.70347e-014 3.49861e-014
lhumerus -12.0511 -11.9317 76.7266
lradius 70.9663
lwrist 5.71017
lhand -14.0619 9.07559
lfingers 7.12502
lthumb 12.0694 38.7075
rfemur -53.5363 -5.95353 18.3
rtibia 65.0751
rfoot -25.2634 -9.84277
rtoes 2.95025
lfemur -43.9475 16.915 -27.5622
ltibia 50.6558
lfoot -17.5882 10.6737
ltoes -3.12947
3924
root -0.534479 15.3944 -3.73388 941.238 -72.8447 -929.092
lowerback 32.0495 -2.12133 3.2478
upperback 15.3942 -3.90198 2.73271
thorax 0.180259 -2.73792 2.35544
lowerneck 5.19972 -7.40324 -1.10643
upperneck -29.4196 -8.30114 14.5347
head -9.3581 -6.15175 6.17121
rclavicle -5.56597e-014 4.77083e-014
rhumerus -18.8945 1.23967 -82.5118
rradius 64.9177
rwrist -0.228439
rhand -25.9383 -5.39583
rfingers 7.12502
rthumb 0.605301 -35.3747
lclavicle -5.56597e-014 4.77083e-014
lhumerus -12.12 -11.9575 76.7542
lradius 70.8953
lwrist 5.74125
lhand -14.0788 9.04109
lfingers 7.12502
lthumb 12.0531 38.674
rfemur -53.5336 -5.95698 18.2818
rtibia 65.0689
rfoot -25.2918 -9.80274
rtoes 3.04666
lfemur -43.9692 16.9154 -27.5849
ltibia 50.6804
lfoot -17.5533 10.6602
ltoes -3.13374
3925
root -0.539779 15.3965 -3.7425 941.398 -72.8459 -929.22
lowerback 32.0523 -2.12884 3.30622
upperback 15.3753 -3.88986 2.73869
thorax 0.154655 -2.72699 2.32638
lowerneck 5.13792 -7.25235 -1.03469
upperneck -29.4883 -8.13947 14.288
head -9.40497 -6.05727 6.06652
rclavicle -6.52014e-014 6.2816e-014
rhumerus -18.9409 1.20268 -82.4893
rradius 64.9676
rwrist -0.232503
rhand -25.9562 -5.39222
rfingers 7.12502
rthumb 0.58801 -35.3712
lclavicle -6.52014e-014 6.2816e-014
lhumerus -12.1966 -11.9789 76.7782
lradius 70.821
lwrist 5.77752
lhand -14.0847 9.01241
lfingers 7.12502
lthumb 12.0475 38.6456
rfemur -53.5278 -5.97067 18.2732
rtibia 65.0606
rfoot -25.3209 -9.76223
rtoes 3.14073
lfemur -44.0124 16.9127 -27.6
ltibia 50.7336
lfoot -17.5012 10.6341
ltoes -3.14488
